<svg width="978" height="258" viewBox="0 0 978 258" fill="none" xmlns="http://www.w3.org/2000/svg">
<path d="M257.603 32.75C257.603 34.75 259.02 35.75 261.853 35.75H263.153V38H248.953V35.75L250.703 35.7C253.27 35.6333 254.553 34.65 254.553 32.75V6.4C254.553 4.96667 253.77 4.13333 252.203 3.9H248.953V1.65H257.553L273.403 29.8L287.603 1.65H297.853V3.9H294.353C293.02 4.13333 292.353 4.96667 292.353 6.4V32.75C292.353 34.75 293.753 35.75 296.553 35.75H297.853V38H281.953V35.75L283.703 35.7C286.27 35.6333 287.553 34.65 287.553 32.75V7.9L272.753 36.9L257.603 10.35V32.75ZM333.409 17.2C335.076 16.6667 335.909 15.5667 335.909 13.9V11.65H338.159V25.05H335.909V22.5C335.909 21.2 335.076 20.2 333.409 19.5H322.709V33.45C322.876 34.4167 323.393 35.1333 324.259 35.6L338.509 35.65C340.243 35.4167 341.109 34.4833 341.109 32.85V30.1H343.359V38H312.359V35.75H315.909C316.843 35.6167 317.526 35.1333 317.959 34.3V5.75C317.859 5.18333 317.593 4.7 317.159 4.3C316.759 3.86667 316.243 3.6 315.609 3.5H312.359V1.25H342.559V9.2H340.309V6.15C340.176 5.21667 339.343 4.36667 337.809 3.6H324.509C323.943 3.7 323.343 4.33333 322.709 5.5V17.2H333.409ZM368.207 33.45C368.374 34.4167 368.891 35.1333 369.757 35.6L381.107 35.65C384.774 35.65 386.607 34.0167 386.607 30.75V29.05H388.857V38H357.857V35.75H361.407C362.341 35.6167 363.024 35.1333 363.457 34.3V5.75C363.357 5.18333 363.091 4.7 362.657 4.3C362.257 3.86667 361.741 3.6 361.107 3.5H357.857V1.25H374.107V3.6H370.007C369.441 3.7 368.841 4.33333 368.207 5.5V33.45ZM413.217 34.25C413.451 35.25 414.217 35.75 415.517 35.75H418.767V38H402.867V35.75L406.417 35.7C407.351 35.5667 408.034 35.0833 408.467 34.25V5.4C408.334 4.63333 407.551 4.13333 406.117 3.9H402.867V1.65H418.767V3.9H415.267C414.367 4.03333 413.684 4.53333 413.217 5.4V34.25ZM480.279 22.15V25.25H470.829V34.7H467.729V25.25H458.279V22.15H467.729V12.65H470.829V22.15H480.279ZM530.421 32.4C530.421 34.6333 531.905 35.75 534.871 35.75H535.971V38H521.271V35.75L522.521 35.7C525.421 35.6 526.871 34.5 526.871 32.4V5.4C526.738 4.63333 525.955 4.13333 524.521 3.9H521.271V1.65H530.521L552.221 27.3V7.4C552.221 5.06666 550.821 3.9 548.021 3.9H546.621V1.65H561.321V3.95H560.021C557.188 3.95 555.771 5.1 555.771 7.4V39.5L530.421 9.45V32.4ZM587.192 34.25C587.425 35.25 588.192 35.75 589.492 35.75H592.742V38H576.842V35.75L580.392 35.7C581.325 35.5667 582.008 35.0833 582.442 34.25V5.4C582.308 4.63333 581.525 4.13333 580.092 3.9H576.842V1.65H592.742V3.9H589.242C588.342 4.03333 587.658 4.53333 587.192 5.4V34.25ZM625.064 35.5C630.73 35.5 634.83 33.95 637.364 30.85L638.364 29.5L639.814 30.7C638.514 32.4 637.597 33.4833 637.064 33.95C636.564 34.3833 636.014 34.8167 635.414 35.25C634.847 35.6833 634.28 36.0333 633.714 36.3C633.18 36.5667 632.797 36.7667 632.564 36.9L631.814 37.2C629.414 38.1 626.897 38.55 624.264 38.55C621.63 38.55 619.264 38.0667 617.164 37.1C615.097 36.1333 613.314 34.7667 611.814 33C610.314 31.2333 609.097 29.05 608.164 26.45C607.23 23.85 606.764 21.3333 606.764 18.9C606.764 12.7667 609.364 7.71666 614.564 3.75C617.43 1.61667 620.497 0.549999 623.764 0.549999C627.03 0.549999 629.697 0.949999 631.764 1.75C631.93 1.81666 632.047 1.85 632.114 1.85C632.214 1.85 632.264 1.78333 632.264 1.65C632.264 1.51667 632.164 1.3 631.964 1H634.464L639.314 8.4L637.914 9.55L636.864 8.2L634.864 6.3C633.364 4.86667 631.83 4 630.264 3.7C628.73 3.4 627.297 3.25 625.964 3.25C624.63 3.25 623.347 3.46666 622.114 3.9C620.88 4.3 619.647 4.95 618.414 5.85C617.214 6.75 616.114 7.8 615.114 9C614.114 10.2 613.314 11.6167 612.714 13.25C612.114 14.8833 611.814 16.5667 611.814 18.3C611.814 23.0667 613.097 27.1333 615.664 30.5C618.264 33.8333 621.397 35.5 625.064 35.5ZM662.774 36.4C659.941 34.6667 657.658 32.3667 655.924 29.5C654.191 26.6333 653.324 23.4667 653.324 20C653.324 16.5333 654.191 13.35 655.924 10.45C657.658 7.51666 659.941 5.16666 662.774 3.4C665.608 1.63333 668.741 0.749997 672.174 0.749997C675.608 0.749997 678.724 1.58333 681.524 3.25C684.358 4.91666 686.641 7.21666 688.374 10.15C690.141 13.05 691.024 16.3167 691.024 19.95C691.024 23.55 690.141 26.7833 688.374 29.65C686.641 32.5167 684.358 34.8 681.524 36.5C678.724 38.1667 675.608 39 672.174 39C668.741 39 665.608 38.1333 662.774 36.4ZM672.474 3.4H670.824C667.991 3.4 665.358 5.03333 662.924 8.3C660.491 11.5667 659.274 15.5333 659.274 20.2C659.274 24.8667 660.574 28.7167 663.174 31.75C665.774 34.7833 668.891 36.3 672.524 36.3C676.191 36.3 679.191 34.7667 681.524 31.7C683.891 28.6 685.074 24.6167 685.074 19.75C685.074 14.8833 683.774 10.95 681.174 7.95C678.608 4.91667 675.708 3.4 672.474 3.4Z" fill="#9A7C44"/>
<path d="M157.104 219C163.504 219 166.704 222.133 166.704 228.4C166.704 230.567 166.221 232.317 165.254 233.65C164.288 234.983 162.388 236.7 159.554 238.8C156.754 240.867 154.738 242.717 153.504 244.35C151.871 246.55 151.038 248.717 151.004 250.85H161.804C162.604 250.85 163.488 250.55 164.454 249.95C165.454 249.35 166.254 248.733 166.854 248.1L167.704 247.2L166.054 255.05H146.704V250.85C146.704 248.25 148.038 245.467 150.704 242.5C151.938 241.133 153.254 239.833 154.654 238.6C158.321 235.267 160.638 232.85 161.604 231.35C162.071 230.55 162.304 229.467 162.304 228.1C162.304 226.7 161.654 225.5 160.354 224.5C159.054 223.5 157.654 223 156.154 223C154.654 223 153.121 223.233 151.554 223.7C150.021 224.167 148.721 224.717 147.654 225.35L147.154 225.65L146.554 223.1C147.121 222.433 148.538 221.583 150.804 220.55C153.071 219.517 155.171 219 157.104 219ZM194.595 219C200.995 219 204.195 222.133 204.195 228.4C204.195 230.567 203.711 232.317 202.745 233.65C201.778 234.983 199.878 236.7 197.045 238.8C194.245 240.867 192.228 242.717 190.995 244.35C189.361 246.55 188.528 248.717 188.495 250.85H199.295C200.095 250.85 200.978 250.55 201.945 249.95C202.945 249.35 203.745 248.733 204.345 248.1L205.195 247.2L203.545 255.05H184.195V250.85C184.195 248.25 185.528 245.467 188.195 242.5C189.428 241.133 190.745 239.833 192.145 238.6C195.811 235.267 198.128 232.85 199.095 231.35C199.561 230.55 199.795 229.467 199.795 228.1C199.795 226.7 199.145 225.5 197.845 224.5C196.545 223.5 195.145 223 193.645 223C192.145 223 190.611 223.233 189.045 223.7C187.511 224.167 186.211 224.717 185.145 225.35L184.645 225.65L184.045 223.1C184.611 222.433 186.028 221.583 188.295 220.55C190.561 219.517 192.661 219 194.595 219ZM248.325 252.05C246.192 249.55 245.125 246.3 245.125 242.3C245.125 238.267 246.192 235.1 248.325 232.8C250.492 230.5 253.208 229.35 256.475 229.35C259.742 229.35 262.358 230.583 264.325 233.05V223H260.575V222L266.525 218H268.525V251.7C268.725 251.933 268.975 252.05 269.275 252.05C269.475 252.05 270.092 251.4 271.125 250.1V252.35C270.592 254.55 269.508 255.65 267.875 255.65C266.242 255.65 265.058 254.467 264.325 252.1L264.375 251.95L264.325 251.85C262.325 254.45 259.692 255.75 256.425 255.75C253.192 255.75 250.492 254.517 248.325 252.05ZM250.075 242.45C250.108 245.483 250.758 247.917 252.025 249.75C253.292 251.583 255.058 252.5 257.325 252.5C261.492 252.5 263.825 249.533 264.325 243.6V240.9C264.025 235.367 261.692 232.583 257.325 232.55C255.225 232.55 253.508 233.417 252.175 235.15C250.842 236.883 250.142 239.317 250.075 242.45ZM306.343 253.3C303.41 254.933 300.243 255.75 296.843 255.75C296.776 255.75 296.71 255.75 296.643 255.75C292.61 255.75 289.426 254.583 287.093 252.25C284.793 249.917 283.643 246.683 283.643 242.55C283.643 238.417 284.776 235.25 287.043 233.05C289.543 230.683 292.693 229.5 296.493 229.5C300.326 229.5 303.126 230.7 304.893 233.1C306.693 235.5 307.593 238.533 307.593 242.2V243.4H288.393C288.593 246 289.476 248.25 291.043 250.15C292.71 252.083 295.043 253.05 298.043 253.05C301.043 253.05 303.876 252.067 306.543 250.1L306.343 253.3ZM303.493 240.8C303.393 235.333 301.16 232.6 296.793 232.6H296.693C291.926 232.6 289.16 235.333 288.393 240.8H303.493ZM382.261 252.75H385.011V255H370.111V252.75H373.111C373.811 252.75 374.294 252.55 374.561 252.15C374.861 251.75 375.011 251.4 375.011 251.1V250.45L371.811 241.6H357.811L354.711 250.45V251.05C354.711 251.383 354.877 251.733 355.211 252.1C355.544 252.433 356.011 252.65 356.611 252.75H359.611V255H346.561V252.75H349.061C349.661 252.65 350.227 252.383 350.761 251.95C351.261 251.517 351.611 251.017 351.811 250.45L363.411 218H367.911L379.511 250.45C379.977 251.783 380.894 252.55 382.261 252.75ZM358.711 239.25H371.011L364.861 222L358.711 239.25ZM411.192 252.5C413.459 252.5 415.226 251.583 416.492 249.75C417.759 247.917 418.409 245.483 418.442 242.45C418.376 239.317 417.676 236.883 416.342 235.15C415.009 233.417 413.292 232.55 411.192 232.55C406.826 232.583 404.492 235.367 404.192 240.9V243.6C404.692 249.533 407.026 252.5 411.192 252.5ZM404.192 233.05C406.159 230.583 408.776 229.35 412.042 229.35C415.309 229.35 418.009 230.5 420.142 232.8C422.309 235.1 423.392 238.267 423.392 242.3C423.392 246.3 422.309 249.55 420.142 252.05C418.009 254.517 415.309 255.75 412.042 255.75C408.809 255.75 406.192 254.45 404.192 251.85V255.15H399.992V223H396.242V222L402.192 218H404.192V233.05ZM454.41 229.25H454.51C455.443 229.25 456.227 229.283 456.86 229.35C456.36 231.283 456.11 232.6 456.11 233.3C455.443 233.2 454.66 233.15 453.76 233.15C451.127 233.15 448.943 234.3 447.21 236.6C445.51 238.867 444.66 241.133 444.66 243.4V251.25C444.893 252.25 445.493 252.75 446.46 252.75H448.86V255H436.31V252.75L438.96 252.7C439.627 252.567 440.143 252.083 440.51 251.25V234.95H436.76V233.95L442.71 229.95H444.66V236.4C446.627 231.633 449.877 229.25 454.41 229.25ZM472.633 223.65C471.999 222.983 471.683 222.2 471.683 221.3C471.683 220.4 471.999 219.633 472.633 219C473.299 218.333 474.083 218 474.983 218C475.883 218 476.649 218.333 477.283 219C477.949 219.633 478.283 220.4 478.283 221.3C478.283 222.2 477.949 222.983 477.283 223.65C476.649 224.283 475.883 224.6 474.983 224.6C474.083 224.6 473.299 224.283 472.633 223.65ZM476.983 251.25C477.216 252.25 477.816 252.75 478.783 252.75H480.883V255H468.633V252.75L471.283 252.7C471.949 252.567 472.466 252.083 472.833 251.25V234H469.083V233L475.033 229H476.983V251.25ZM501.029 218V251.25C501.262 252.25 501.696 252.75 502.329 252.75H504.979V255H492.929V252.75L495.829 252.7C495.929 252.567 496.279 252.083 496.879 251.25V223H493.129V222L499.079 218H501.029ZM545.649 252.05C543.516 249.55 542.449 246.3 542.449 242.3C542.449 238.267 543.516 235.1 545.649 232.8C547.816 230.5 550.533 229.35 553.799 229.35C557.066 229.35 559.683 230.583 561.649 233.05V223H557.899V222L563.849 218H565.849V251.7C566.049 251.933 566.299 252.05 566.599 252.05C566.799 252.05 567.416 251.4 568.449 250.1V252.35C567.916 254.55 566.833 255.65 565.199 255.65C563.566 255.65 562.383 254.467 561.649 252.1L561.699 251.95L561.649 251.85C559.649 254.45 557.016 255.75 553.749 255.75C550.516 255.75 547.816 254.517 545.649 252.05ZM547.399 242.45C547.433 245.483 548.083 247.917 549.349 249.75C550.616 251.583 552.383 252.5 554.649 252.5C558.816 252.5 561.149 249.533 561.649 243.6V240.9C561.349 235.367 559.016 232.583 554.649 232.55C552.549 232.55 550.833 233.417 549.499 235.15C548.166 236.883 547.466 239.317 547.399 242.45ZM603.667 253.3C600.734 254.933 597.567 255.75 594.167 255.75C594.101 255.75 594.034 255.75 593.967 255.75C589.934 255.75 586.751 254.583 584.417 252.25C582.117 249.917 580.967 246.683 580.967 242.55C580.967 238.417 582.101 235.25 584.367 233.05C586.867 230.683 590.017 229.5 593.817 229.5C597.651 229.5 600.451 230.7 602.217 233.1C604.017 235.5 604.917 238.533 604.917 242.2V243.4H585.717C585.917 246 586.801 248.25 588.367 250.15C590.034 252.083 592.367 253.05 595.367 253.05C598.367 253.05 601.201 252.067 603.867 250.1L603.667 253.3ZM600.817 240.8C600.717 235.333 598.484 232.6 594.117 232.6H594.017C589.251 232.6 586.484 235.333 585.717 240.8H600.817ZM655.835 219C662.235 219 665.435 222.133 665.435 228.4C665.435 230.567 664.951 232.317 663.985 233.65C663.018 234.983 661.118 236.7 658.285 238.8C655.485 240.867 653.468 242.717 652.235 244.35C650.601 246.55 649.768 248.717 649.735 250.85H660.535C661.335 250.85 662.218 250.55 663.185 249.95C664.185 249.35 664.985 248.733 665.585 248.1L666.435 247.2L664.785 255.05H645.435V250.85C645.435 248.25 646.768 245.467 649.435 242.5C650.668 241.133 651.985 239.833 653.385 238.6C657.051 235.267 659.368 232.85 660.335 231.35C660.801 230.55 661.035 229.467 661.035 228.1C661.035 226.7 660.385 225.5 659.085 224.5C657.785 223.5 656.385 223 654.885 223C653.385 223 651.851 223.233 650.285 223.7C648.751 224.167 647.451 224.717 646.385 225.35L645.885 225.65L645.285 223.1C645.851 222.433 647.268 221.583 649.535 220.55C651.801 219.517 653.901 219 655.835 219ZM693.125 218.6C696.725 218.6 699.508 220.233 701.475 223.5C703.475 226.767 704.475 231.25 704.475 236.95C704.475 241.083 703.858 244.65 702.625 247.65C701.425 250.617 699.725 252.767 697.525 254.1C696.025 255 694.558 255.45 693.125 255.45C689.858 255.45 687.142 253.833 684.975 250.6C682.842 247.333 681.775 242.783 681.775 236.95C681.775 227.983 683.975 222.267 688.375 219.8C689.808 219 691.392 218.6 693.125 218.6ZM693.125 252.95C694.825 252.95 696.342 251.483 697.675 248.55C699.042 245.583 699.725 242.033 699.725 237.9C699.725 226.667 697.525 221.05 693.125 221.05C691.225 221.05 689.642 222.433 688.375 225.2C687.142 227.933 686.525 231.483 686.525 235.85C686.525 244.417 687.892 249.817 690.625 252.05C691.358 252.65 692.192 252.95 693.125 252.95ZM730.815 219C737.215 219 740.415 222.133 740.415 228.4C740.415 230.567 739.932 232.317 738.965 233.65C737.999 234.983 736.099 236.7 733.265 238.8C730.465 240.867 728.449 242.717 727.215 244.35C725.582 246.55 724.749 248.717 724.715 250.85H735.515C736.315 250.85 737.199 250.55 738.165 249.95C739.165 249.35 739.965 248.733 740.565 248.1L741.415 247.2L739.765 255.05H720.415V250.85C720.415 248.25 721.749 245.467 724.415 242.5C725.649 241.133 726.965 239.833 728.365 238.6C732.032 235.267 734.349 232.85 735.315 231.35C735.782 230.55 736.015 229.467 736.015 228.1C736.015 226.7 735.365 225.5 734.065 224.5C732.765 223.5 731.365 223 729.865 223C728.365 223 726.832 223.233 725.265 223.7C723.732 224.167 722.432 224.717 721.365 225.35L720.865 225.65L720.265 223.1C720.832 222.433 722.249 221.583 724.515 220.55C726.782 219.517 728.882 219 730.815 219ZM770.405 222.2C769.705 221.7 768.422 221.433 766.555 221.4H766.455C764.622 221.4 762.389 222.433 759.755 224.5L758.305 222.5L759.755 221.55C763.155 219.317 765.872 218.2 767.905 218.2C769.939 218.2 771.672 218.567 773.105 219.3C774.539 220 775.539 221 776.105 222.3C776.705 223.567 777.005 224.967 777.005 226.5C777.005 228 776.355 229.5 775.055 231C773.789 232.467 771.805 233.783 769.105 234.95C773.439 235.083 776.389 236.467 777.955 239.1C778.689 240.333 779.055 241.833 779.055 243.6C779.055 246.4 778.089 248.717 776.155 250.55C774.255 252.35 771.772 253.733 768.705 254.7C766.939 255.267 765.105 255.55 763.205 255.55C761.305 255.55 759.455 255.417 757.655 255.15L756.805 252.2L757.705 252.35L758.805 252.5C759.539 252.6 760.572 252.65 761.905 252.65C763.272 252.65 764.505 252.55 765.605 252.35C767.605 251.95 769.572 250.967 771.505 249.4C773.439 247.833 774.405 245.9 774.405 243.6C774.405 239.367 771.722 237.25 766.355 237.25H766.305C766.005 237.217 765.655 237.2 765.255 237.2C764.889 237.2 764.272 237.317 763.405 237.55L761.005 238.2L760.605 235.3L762.655 235.05C763.355 234.95 764.189 234.667 765.155 234.2C770.022 231.667 772.455 228.933 772.455 226C772.455 224.433 771.772 223.167 770.405 222.2Z" fill="#9A7C44"/>
<path d="M138.668 122.734L136.559 123.262C136.207 123.613 135.211 123.906 133.57 124.141C131.93 124.375 130.348 124.375 128.824 124.141C127.301 123.906 126.598 123.32 126.715 122.383C126.48 118.984 128.648 117.461 133.219 117.812C138.023 118.164 140.836 116.641 141.656 113.242L149.918 81.7773L153.258 78.4375C154.43 78.7891 155.016 79.8438 155.016 81.6016L154.84 83.3594L146.578 116.582V117.461C147.516 117.812 148.922 117.988 150.797 117.988C152.672 117.988 156.012 117.344 160.816 116.055C165.621 114.648 168.375 113.945 169.078 113.945C169.078 120.391 164.742 123.613 156.07 123.613C153.375 123.613 150.328 123.32 146.93 122.734C144.352 128.594 143.062 133.984 143.062 138.906C143.062 143.711 144.352 148.164 146.93 152.266C149.508 156.25 153.492 158.242 158.883 158.242C164.391 157.422 168.609 156.133 171.539 154.375C174.586 152.5 176.812 151.211 178.219 150.508C179.625 149.688 181.031 149.277 182.438 149.277C183.844 149.277 185.367 149.453 187.008 149.805C183.727 155.664 174.234 159.531 158.531 161.406C158.18 161.406 157.887 161.406 157.652 161.406C149.566 161.406 144.117 158.418 141.305 152.441C139.195 148.105 138.141 143.125 138.141 137.5C138.141 131.758 138.316 126.836 138.668 122.734ZM250.289 151.914C243.961 156.484 237.047 158.77 229.547 158.77C225.68 158.77 222.516 157.598 220.055 155.254C217.711 152.91 216.246 149.98 215.66 146.465C215.074 142.832 214.664 139.609 214.43 136.797C214.312 133.867 214.254 131.465 214.254 129.59C214.254 127.598 214.371 125.547 214.605 123.438C214.254 122.148 212.613 121.504 209.684 121.504C206.871 121.504 204.117 122.969 201.422 125.898C198.727 128.828 196.5 132.344 194.742 136.445C193.102 140.43 191.461 144.414 189.82 148.398C188.297 152.383 186.832 155.371 185.426 157.363C184.02 159.355 182.848 160.352 181.91 160.352C180.973 160.352 180.27 160.234 179.801 160C179.684 159.297 179.625 158.477 179.625 157.539C179.625 151.68 181.676 139.082 185.777 119.746C189.879 100.41 193.922 83.8281 197.906 70C198.141 69.1797 198.785 67.4219 199.84 64.7266C201.012 61.9141 202.242 59.9219 203.531 58.75C204.82 57.4609 206.168 56.8164 207.574 56.8164C208.98 56.8164 210.094 57.1094 210.914 57.6953V57.3438C212.086 58.1641 213.023 60.1562 213.727 63.3203C214.43 66.4844 214.781 69.0039 214.781 70.8789C214.781 81.8945 211.91 91.9727 206.168 101.113C203.824 104.863 201.48 108.379 199.137 111.66C196.793 114.941 194.918 118.047 193.512 120.977C192.223 123.906 191.578 126.074 191.578 127.48C191.578 128.887 191.578 129.766 191.578 130.117C198.023 121.094 204.879 116.582 212.145 116.582C214.723 116.582 216.598 116.875 217.77 117.461C218.707 118.047 219.293 118.867 219.527 119.922C219.762 120.859 219.879 123.379 219.879 127.48C219.996 131.465 220.172 134.922 220.406 137.852C220.758 140.664 221.285 143.711 221.988 146.992C222.691 150.156 223.629 152.207 224.801 153.145C226.09 154.082 227.262 154.551 228.316 154.551C229.371 154.551 230.484 154.258 231.656 153.672C241.969 148.633 248.766 146.113 252.047 146.113C253.57 146.113 254.332 146.582 254.332 147.52C254.332 148.457 252.984 149.922 250.289 151.914ZM202.828 72.1094C198.492 88.8672 196.266 98.418 196.148 100.762C196.148 102.988 196.148 104.219 196.148 104.453L196.324 106.914C201.832 104.688 205.758 94.9609 208.102 77.7344C208.805 72.6953 209.156 68.5938 209.156 65.4297C209.156 62.2656 208.629 60.6836 207.574 60.6836C206.52 60.6836 204.938 64.4922 202.828 72.1094ZM250.816 141.543C250.699 140.488 250.641 139.492 250.641 138.555C250.641 131.055 253.102 123.32 258.023 115.352C263.062 107.383 269.508 103.398 277.359 103.398C278.883 103.398 280.113 103.867 281.051 104.805C281.988 105.625 282.457 107.09 282.457 109.199C282.457 111.191 281.871 113.594 280.699 116.406C279.645 119.102 277.945 121.855 275.602 124.668C273.375 127.48 271.441 129.766 269.801 131.523C268.16 133.281 265.816 135.566 262.77 138.379C259.84 141.191 258.082 142.891 257.496 143.477C257.379 144.414 257.32 144.941 257.32 145.059C257.32 148.223 258.844 150.684 261.891 152.441C264.938 154.199 268.102 155.078 271.383 155.078C279.234 155.078 285.445 153.672 290.016 150.859C294.703 148.047 300.094 143.301 306.188 136.621C307.125 135.449 307.652 134.512 307.77 133.809C308.004 133.105 308.648 132.344 309.703 131.523C310.875 131.992 311.461 133.105 311.461 134.863C310.289 138.496 307.945 142.422 304.43 146.641C300.914 150.742 296.754 154.258 291.949 157.188C285.27 161.055 279.586 162.988 274.898 162.988C270.328 162.988 265.875 161.406 261.539 158.242C257.203 155.078 253.629 149.512 250.816 141.543ZM277.711 109.902C272.672 109.902 267.984 112.598 263.648 117.988C259.312 123.379 257.145 128.535 257.145 133.457C257.145 135.098 257.262 136.27 257.496 136.973C261.832 134.629 266.285 130.645 270.855 125.02C275.426 119.277 277.711 114.238 277.711 109.902ZM391.441 128.008C391.441 121.562 391.676 114.121 392.145 105.684C393.316 105.684 394.312 106.152 395.133 107.09C396.07 107.91 396.48 109.199 396.363 110.957C396.246 112.715 396.188 117.695 396.188 125.898C396.188 134.102 396.305 139.316 396.539 141.543C397.008 148.34 398.355 151.738 400.582 151.738C401.754 151.738 403.219 150.801 404.977 148.926C409.195 144.238 413.062 136.797 416.578 126.602C417.867 122.617 418.512 120.098 418.512 119.043C418.512 117.871 418.512 117.168 418.512 116.934H422.73C422.965 118.223 423.375 121.797 423.961 127.656C425.602 141.602 427.418 149.688 429.41 151.914C432.105 151.328 434.039 147.578 435.211 140.664C436.383 133.633 436.969 127.949 436.969 123.613L440.309 120.098C441.246 123.145 441.891 125.195 442.242 126.25C442.711 127.305 443.414 128.418 444.352 129.59C445.289 130.762 446.344 131.465 447.516 131.699C448.805 131.934 450.562 132.051 452.789 132.051C457.125 129.238 459.703 127.832 460.523 127.832C461.461 127.832 461.93 128.008 461.93 128.359C461.93 130 460.465 131.875 457.535 133.984C454.723 135.977 452.965 136.973 452.262 136.973C451.559 136.973 451.148 136.973 451.031 136.973C446.695 136.973 443.707 136.387 442.066 135.215C441.949 135.684 441.656 137.09 441.188 139.434C440.719 141.777 440.191 143.887 439.605 145.762C439.02 147.52 438.258 149.453 437.32 151.562C435.328 156.25 432.398 158.594 428.531 158.594C426.891 158.594 425.484 157.363 424.312 154.902C422.789 151.973 421.441 148.34 420.27 144.004C419.098 139.551 418.512 137.207 418.512 136.973C410.191 151.973 403.805 159.473 399.352 159.473C394.078 159.473 391.441 148.984 391.441 128.008ZM457.008 141.543C456.891 140.488 456.832 139.492 456.832 138.555C456.832 131.055 459.293 123.32 464.215 115.352C469.254 107.383 475.699 103.398 483.551 103.398C485.074 103.398 486.305 103.867 487.242 104.805C488.18 105.625 488.648 107.09 488.648 109.199C488.648 111.191 488.062 113.594 486.891 116.406C485.836 119.102 484.137 121.855 481.793 124.668C479.566 127.48 477.633 129.766 475.992 131.523C474.352 133.281 472.008 135.566 468.961 138.379C466.031 141.191 464.273 142.891 463.688 143.477C463.57 144.414 463.512 144.941 463.512 145.059C463.512 148.223 465.035 150.684 468.082 152.441C471.129 154.199 474.293 155.078 477.574 155.078C485.426 155.078 491.637 153.672 496.207 150.859C500.895 148.047 506.285 143.301 512.379 136.621C513.316 135.449 513.844 134.512 513.961 133.809C514.195 133.105 514.84 132.344 515.895 131.523C517.066 131.992 517.652 133.105 517.652 134.863C516.48 138.496 514.137 142.422 510.621 146.641C507.105 150.742 502.945 154.258 498.141 157.188C491.461 161.055 485.777 162.988 481.09 162.988C476.52 162.988 472.066 161.406 467.73 158.242C463.395 155.078 459.82 149.512 457.008 141.543ZM483.902 109.902C478.863 109.902 474.176 112.598 469.84 117.988C465.504 123.379 463.336 128.535 463.336 133.457C463.336 135.098 463.453 136.27 463.688 136.973C468.023 134.629 472.477 130.645 477.047 125.02C481.617 119.277 483.902 114.238 483.902 109.902ZM514.84 146.289C517.184 138.555 519.703 132.344 522.398 127.656C525.211 122.969 528.551 119.629 532.418 117.637C536.285 115.527 539.801 114.238 542.965 113.77C546.129 113.184 550.523 112.891 556.148 112.891C556.5 111.484 557.086 108.73 557.906 104.629C558.727 100.41 559.312 97.5977 559.664 96.1914C560.133 94.668 560.777 92.3828 561.598 89.3359C563.004 84.2969 564.41 80.4883 565.816 77.9102C567.34 75.2148 568.277 73.5156 568.629 72.8125C568.98 72.1094 569.215 71.6406 569.332 71.4062C569.566 71.0547 569.859 70.7031 570.211 70.3516C570.68 69.8828 571.441 69.6484 572.496 69.6484C576.129 69.6484 577.945 73.5156 577.945 81.25V82.832C577.945 88.9258 575.367 97.3633 570.211 108.145C565.055 118.809 562.477 126.953 562.477 132.578C562.477 145.117 565.875 151.387 572.672 151.387C574.898 151.387 577.945 150.508 581.812 148.75C585.68 146.992 588.727 146.113 590.953 146.113L592.711 146.289C590.719 149.336 587.73 151.738 583.746 153.496C579.879 155.254 576.656 156.133 574.078 156.133C571.617 156.133 569.918 156.074 568.98 155.957C568.043 155.84 567.164 155.605 566.344 155.254C565.523 154.785 564.82 154.434 564.234 154.199C563.766 153.965 563.18 153.438 562.477 152.617C561.891 151.68 561.422 151.035 561.07 150.684C560.836 150.332 560.426 149.512 559.84 148.223C559.254 146.934 558.844 146.113 558.609 145.762C558.492 145.41 558.082 144.414 557.379 142.773C556.793 141.133 556.383 140.078 556.148 139.609C555.797 139.961 554.449 141.426 552.105 144.004C549.762 146.465 548.121 148.164 547.184 149.102C546.246 149.922 544.605 151.328 542.262 153.32C540.035 155.312 538.16 156.719 536.637 157.539C532.301 159.883 528.434 161.055 525.035 161.055C521.754 161.055 519.352 160.293 517.828 158.77C516.422 157.129 515.543 155.43 515.191 153.672C514.957 151.797 514.84 149.336 514.84 146.289ZM546.656 119.395C540.094 119.395 534.176 122.441 528.902 128.535C523.746 134.629 521.168 140.781 521.168 146.992C521.168 153.086 522.809 156.133 526.09 156.133C530.66 156.133 536.52 152.676 543.668 145.762C550.934 138.73 554.566 132.754 554.566 127.832C554.566 124.902 553.922 122.793 552.633 121.504C551.461 120.098 549.469 119.395 546.656 119.395ZM572.848 78.0859C569.801 82.3047 567.281 87.9883 565.289 95.1367C563.414 102.168 562.477 108.086 562.477 112.891C562.477 113.125 562.535 113.652 562.652 114.473L564.234 112.891C565.641 111.484 568.512 103.164 572.848 87.9297L573.023 85.8203C573.023 84.4141 573.023 83.5352 573.023 83.1836C573.023 82.832 572.965 81.9531 572.848 80.5469C572.848 79.1406 572.848 78.3203 572.848 78.0859ZM587.965 146.289C590.309 138.555 592.828 132.344 595.523 127.656C598.336 122.969 601.676 119.629 605.543 117.637C609.41 115.527 612.926 114.238 616.09 113.77C619.254 113.184 623.648 112.891 629.273 112.891C629.625 111.484 630.211 108.73 631.031 104.629C631.852 100.41 632.438 97.5977 632.789 96.1914C633.258 94.668 633.902 92.3828 634.723 89.3359C636.129 84.2969 637.535 80.4883 638.941 77.9102C640.465 75.2148 641.402 73.5156 641.754 72.8125C642.105 72.1094 642.34 71.6406 642.457 71.4062C642.691 71.0547 642.984 70.7031 643.336 70.3516C643.805 69.8828 644.566 69.6484 645.621 69.6484C649.254 69.6484 651.07 73.5156 651.07 81.25V82.832C651.07 88.9258 648.492 97.3633 643.336 108.145C638.18 118.809 635.602 126.953 635.602 132.578C635.602 145.117 639 151.387 645.797 151.387C648.023 151.387 651.07 150.508 654.938 148.75C658.805 146.992 661.852 146.113 664.078 146.113L665.836 146.289C663.844 149.336 660.855 151.738 656.871 153.496C653.004 155.254 649.781 156.133 647.203 156.133C644.742 156.133 643.043 156.074 642.105 155.957C641.168 155.84 640.289 155.605 639.469 155.254C638.648 154.785 637.945 154.434 637.359 154.199C636.891 153.965 636.305 153.438 635.602 152.617C635.016 151.68 634.547 151.035 634.195 150.684C633.961 150.332 633.551 149.512 632.965 148.223C632.379 146.934 631.969 146.113 631.734 145.762C631.617 145.41 631.207 144.414 630.504 142.773C629.918 141.133 629.508 140.078 629.273 139.609C628.922 139.961 627.574 141.426 625.23 144.004C622.887 146.465 621.246 148.164 620.309 149.102C619.371 149.922 617.73 151.328 615.387 153.32C613.16 155.312 611.285 156.719 609.762 157.539C605.426 159.883 601.559 161.055 598.16 161.055C594.879 161.055 592.477 160.293 590.953 158.77C589.547 157.129 588.668 155.43 588.316 153.672C588.082 151.797 587.965 149.336 587.965 146.289ZM619.781 119.395C613.219 119.395 607.301 122.441 602.027 128.535C596.871 134.629 594.293 140.781 594.293 146.992C594.293 153.086 595.934 156.133 599.215 156.133C603.785 156.133 609.645 152.676 616.793 145.762C624.059 138.73 627.691 132.754 627.691 127.832C627.691 124.902 627.047 122.793 625.758 121.504C624.586 120.098 622.594 119.395 619.781 119.395ZM645.973 78.0859C642.926 82.3047 640.406 87.9883 638.414 95.1367C636.539 102.168 635.602 108.086 635.602 112.891C635.602 113.125 635.66 113.652 635.777 114.473L637.359 112.891C638.766 111.484 641.637 103.164 645.973 87.9297L646.148 85.8203C646.148 84.4141 646.148 83.5352 646.148 83.1836C646.148 82.832 646.09 81.9531 645.973 80.5469C645.973 79.1406 645.973 78.3203 645.973 78.0859ZM662.848 122.383L663.551 120.098C665.895 112.598 667.887 108.848 669.527 108.848C671.871 108.848 673.043 109.727 673.043 111.484C673.043 111.836 672.984 112.188 672.867 112.539C668.414 123.438 666.188 133.809 666.188 143.652C666.188 148.105 667.301 151.855 669.527 154.902C671.754 157.832 675.152 159.297 679.723 159.297C691.207 154.844 698.414 152.617 701.344 152.617C702.281 152.617 702.75 152.852 702.75 153.32C702.75 154.727 699.703 156.777 693.609 159.473C687.516 162.051 682.711 163.34 679.195 163.34C675.797 163.34 673.219 163.047 671.461 162.461C669.703 161.992 668.414 161.523 667.594 161.055C666.773 160.586 665.777 159.59 664.605 158.066C663.434 156.426 662.672 154.316 662.32 151.738C661.969 149.043 661.793 145.234 661.793 140.312C661.793 135.391 662.145 129.414 662.848 122.383ZM737.027 141.719C737.027 139.609 737.027 135.977 737.027 130.82C737.145 125.547 737.203 121.035 737.203 117.285C733.922 117.988 729.117 122.207 722.789 129.941C716.578 137.676 713.18 141.719 712.594 142.07C708.023 148.164 704.449 152.5 701.871 155.078C700.816 156.484 699.117 157.188 696.773 157.188V153.32L704.332 128.887C704.332 120.332 705.797 114.004 708.727 109.902C709.547 108.73 710.309 108.145 711.012 108.145C712.184 108.145 712.77 110.137 712.77 114.121C712.77 117.988 712.184 122.324 711.012 127.129C709.84 131.816 709.254 135.742 709.254 138.906C710.191 137.969 713.004 134.688 717.691 129.062C722.379 123.438 725.191 120.156 726.129 119.219C726.949 118.75 728.355 117.578 730.348 115.703C734.566 111.953 738.258 110.078 741.422 110.078C743.18 110.078 744.293 110.664 744.762 111.836C744.879 113.125 744.938 115.234 744.938 118.164C744.938 120.977 744.469 125.488 743.531 131.699C742.594 137.793 742.066 142.656 741.949 146.289C741.949 151.797 744.234 154.551 748.805 154.551C752.086 154.551 755.25 153.672 758.297 151.914C761.344 150.039 763.805 147.988 765.68 145.762C767.555 143.418 769.723 140.781 772.184 137.852C774.645 134.805 776.812 132.578 778.688 131.172V132.93C778.688 138.555 775.055 144.414 767.789 150.508C760.523 156.484 753.902 159.473 747.926 159.473H742.125C740.367 158.301 739.195 157.188 738.609 156.133C738.141 155.078 737.789 154.316 737.555 153.848C737.32 153.379 737.145 152.676 737.027 151.738C737.027 150.684 737.027 149.922 737.027 149.453V141.719ZM814.02 122.559L812.613 158.77C812.613 158.887 812.613 159.414 812.613 160.352C812.73 161.289 812.789 161.875 812.789 162.109C816.305 160.703 821.52 158.008 828.434 154.023C835.348 149.922 841.734 147.051 847.594 145.41C848.766 146.113 849.352 146.992 849.352 148.047C849.352 148.281 846.656 149.688 841.266 152.266C824.391 160.469 814.312 166.504 811.031 170.371C809.273 188.418 807.809 200.137 806.637 205.527C805.582 210.918 804.879 214.316 804.527 215.723C804.293 217.246 803.648 219.414 802.594 222.227C801.539 225.039 800.426 227.09 799.254 228.379C796.09 231.895 792.457 233.652 788.355 233.652C784.254 233.652 780.211 232.832 776.227 231.191C772.359 229.668 769.547 227.676 767.789 225.215C767.555 224.043 767.438 222.109 767.438 219.414C767.438 210.742 772.066 200.781 781.324 189.531C782.027 188.945 784.195 187.188 787.828 184.258C797.555 176.406 803.121 171.777 804.527 170.371C805.699 168.379 806.285 164.512 806.285 158.77C806.285 158.418 806.227 157.305 806.109 155.43C806.109 153.555 806.109 152.441 806.109 152.09C797.672 157.715 790.641 160.527 785.016 160.527C780.094 160.293 776.52 157.539 774.293 152.266C773.355 149.922 772.887 147.109 772.887 143.828C772.887 140.43 774.41 136.504 777.457 132.051C782.379 125.02 790.523 119.863 801.891 116.582C809.977 116.582 814.02 118.574 814.02 122.559ZM772.711 218.711C772.711 221.641 774.352 223.984 777.633 225.742C780.914 227.617 784.254 228.555 787.652 228.555C791.168 228.555 794.156 226.445 796.617 222.227C799.195 218.125 800.953 212.969 801.891 206.758C803.648 196.328 804.527 187.773 804.527 181.094V177.051C796.793 182.09 789.527 188.477 782.73 196.211C776.051 204.062 772.711 211.562 772.711 218.711ZM779.391 151.387C779.391 154.199 781.5 155.605 785.719 155.605C792.867 155.371 798.375 152.559 802.242 147.168C806.109 141.777 808.043 137.09 808.043 133.105C808.043 132.754 808.043 132.402 808.043 132.051V130.293C808.043 127.715 807.457 125.664 806.285 124.141C805.113 122.5 803.473 121.68 801.363 121.68C800.895 121.562 800.367 121.504 799.781 121.504C794.508 121.504 789.645 124.492 785.191 130.469C780.855 136.445 778.688 141.777 778.688 146.465C778.688 148.105 778.922 149.746 779.391 151.387Z" fill="#9A7C44"/>
</svg>
